<svg xmlns="http://www.w3.org/2000/svg" width="28" height="28">
    <path fill="red" fill-opacity="0" fill-rule="evenodd" d="M0 0h28v28H0V0z"/>
    <path fill="#EEE" fill-rule="evenodd" d="M18.724 14.707l-2.829 2.829c-.39.39-1.023.39-1.413 0-.393-.391-.393-1.024 0-1.415L16.602 14l-2.12-2.121c-.393-.391-.393-1.024 0-1.415.39-.39 1.023-.39 1.413 0l2.829 2.829c.39.39.39 1.023 0 1.414zm-7.83 2.829c-.389.39-1.022.39-1.415 0-.39-.391-.39-1.024 0-1.415L11.601 14l-2.122-2.121c-.39-.391-.39-1.024 0-1.415.393-.39 1.026-.39 1.415 0l2.829 2.829c.391.39.391 1.023 0 1.414l-2.829 2.829z"/>
</svg>
