<svg xmlns="http://www.w3.org/2000/svg" width="28" height="28">
    <path fill="red" fill-opacity="0" fill-rule="evenodd" d="M0 0h28v28H0V0z"/>
    <path fill="#EEE" fill-rule="evenodd" d="M16.586 14l2.122 2.121c.389.391.389 1.024 0 1.415-.391.39-1.025.39-1.415 0l-2.83-2.829c-.388-.391-.388-1.024 0-1.414l2.83-2.829c.39-.39 1.024-.39 1.415 0 .389.391.389 1.024 0 1.415L16.586 14zm-2.879 3.536c-.39.39-1.023.39-1.415 0l-2.827-2.829c-.392-.391-.392-1.024 0-1.414l2.827-2.829c.392-.39 1.025-.39 1.415 0 .39.391.39 1.024 0 1.415L11.585 14l2.122 2.121c.39.391.39 1.024 0 1.415z"/>
</svg>
